<?xml version="1.0" standalone="no"?>
<!DOCTYPE svg PUBLIC "-//W3C//DTD SVG 20010904//EN"
 "http://www.w3.org/TR/2001/REC-SVG-20010904/DTD/svg10.dtd">
<svg version="1.0" xmlns="http://www.w3.org/2000/svg"
 width="384.000000pt" height="384.000000pt" viewBox="0 0 384.000000 384.000000"
 preserveAspectRatio="xMidYMid meet">
<metadata>
Created by potrace 1.14, written by Peter Selinger 2001-2017
</metadata>
<g transform="translate(0.000000,384.000000) scale(0.100000,-0.100000)"
fill="#000000" stroke="none">
<path d="M0 1920 l0 -1920 1920 0 1920 0 0 1920 0 1920 -1920 0 -1920 0 0
-1920z m3080 1280 c23 -23 26 -68 6 -95 -13 -18 -27 -19 -217 -17 -262 3 -319
-11 -499 -125 -40 -25 -70 -70 -81 -122 -5 -20 -20 -70 -35 -111 -20 -55 -30
-104 -35 -185 -4 -60 -11 -130 -15 -153 -4 -30 -1 -55 9 -80 8 -21 20 -74 25
-119 7 -50 21 -101 37 -132 14 -28 25 -66 25 -85 0 -20 14 -61 34 -98 77 -145
100 -185 128 -223 16 -22 49 -71 74 -108 24 -38 59 -76 76 -85 17 -9 45 -29
62 -43 17 -15 41 -29 52 -33 12 -4 29 -15 39 -26 10 -11 31 -20 47 -20 16 0
41 -6 56 -14 46 -23 268 -76 319 -76 36 1 65 10 117 38 99 53 100 55 103 382
l4 266 -38 13 c-21 8 -85 36 -143 63 -120 57 -309 138 -321 138 -5 0 -9 -21
-10 -47 -1 -99 -25 -225 -44 -239 -27 -20 -62 -17 -85 6 -23 23 -26 72 -11
180 5 36 12 100 16 143 9 102 23 117 104 117 42 0 65 -5 83 -19 13 -11 65 -36
114 -57 49 -20 123 -53 164 -74 41 -20 118 -54 170 -75 52 -20 103 -46 113
-57 15 -18 17 -50 17 -342 -1 -259 -3 -326 -15 -346 -8 -14 -14 -35 -15 -47 0
-38 -50 -83 -141 -129 -86 -43 -91 -44 -185 -44 -74 0 -123 7 -217 31 -67 17
-134 38 -149 45 -15 8 -42 14 -60 14 -21 0 -53 14 -89 38 -30 20 -80 53 -110
73 -64 43 -91 71 -139 143 -19 29 -61 92 -93 139 -32 47 -71 114 -89 149 -17
35 -39 79 -49 98 -11 19 -19 52 -19 73 0 21 -11 60 -25 88 -16 31 -30 82 -37
132 -5 45 -17 98 -25 118 -15 37 -15 58 5 329 6 85 15 135 36 190 15 41 31 91
35 112 13 59 65 141 112 175 68 49 197 114 269 133 53 15 107 18 293 19 214 1
228 0 247 -19z m-2401 -29 c16 -16 19 -42 24 -217 6 -207 10 -229 67 -410 16
-50 45 -155 65 -234 20 -78 48 -168 64 -199 15 -31 35 -86 44 -122 9 -36 30
-95 47 -130 16 -35 30 -75 31 -89 0 -20 3 -16 13 15 7 22 24 63 38 90 14 28
33 77 43 109 9 33 30 87 47 120 17 34 55 142 84 241 29 99 57 193 63 208 6 16
11 47 11 71 0 23 11 76 25 116 14 40 25 87 25 105 0 17 9 56 20 88 11 31 20
70 20 87 0 84 80 146 136 106 18 -14 19 -33 25 -358 7 -419 26 -586 89 -766
32 -90 40 -128 40 -182 0 -55 6 -82 29 -132 40 -87 53 -127 58 -173 2 -22 22
-76 43 -120 66 -134 106 -260 96 -299 -8 -32 -45 -51 -81 -42 -28 7 -65 59
-65 91 0 11 -9 37 -20 58 -11 20 -20 45 -20 55 0 10 -17 45 -37 78 -24 40 -39
77 -43 114 -8 62 -20 98 -61 188 -23 50 -29 77 -29 132 0 54 -8 92 -40 182
-30 87 -44 150 -61 273 -31 236 -36 271 -38 263 -10 -58 -116 -388 -139 -434
-17 -33 -38 -87 -47 -120 -10 -32 -29 -81 -43 -109 -14 -27 -40 -103 -58 -168
-36 -133 -53 -164 -91 -173 -49 -13 -74 13 -120 121 -23 55 -43 109 -43 120 0
11 -14 49 -30 84 -17 35 -38 94 -47 130 -9 36 -29 91 -44 122 -15 31 -42 112
-59 180 -29 117 -104 376 -118 409 -4 8 -10 -43 -13 -115 -3 -71 -11 -150 -17
-175 -6 -25 -11 -73 -12 -107 0 -34 -5 -74 -11 -90 -19 -46 -48 -347 -49 -493
0 -78 -8 -144 -30 -250 -16 -79 -30 -162 -30 -183 0 -58 -28 -145 -53 -162
-30 -21 -73 -19 -97 5 -25 25 -25 42 0 108 11 29 20 71 20 95 0 24 14 108 30
187 22 106 30 172 30 250 1 141 30 441 48 495 6 17 13 71 15 122 3 50 10 101
16 112 6 11 11 72 11 136 0 78 4 125 14 143 7 15 16 48 19 75 4 26 13 61 22
77 8 16 15 41 15 56 0 15 4 53 10 83 5 31 12 73 16 94 3 21 14 47 25 58 25 25
83 25 108 0z"/>
</g>
</svg>
